<svg version="1.1" xmlns="http://www.w3.org/2000/svg" viewBox="0 0 1094.9328528294536 454.72336612447646" width="2189.8657056589072" height="909.4467322489529">
  <!-- svg-source:excalidraw -->
  
  <defs>
    <style class="style-fonts">
      @font-face {
        font-family: "Virgil";
        src: url("https://excalidraw.com/Virgil.woff2");
      }
      @font-face {
        font-family: "Cascadia";
        src: url("https://excalidraw.com/Cascadia.woff2");
      }
      @font-face {
        font-family: "Assistant";
        src: url("https://excalidraw.com/Assistant-Regular.woff2");
      }
    </style>
    
  </defs>
  <g stroke-linecap="round" transform="translate(48 116.72336612447646) rotate(0 355.2336612447648 143.5)"><path d="M32 0 C210.13 0.01, 389.07 -1.36, 678.47 0 M32 0 C186.45 1.8, 341.03 1.86, 678.47 0 M678.47 0 C700.71 -1.59, 709.89 12.31, 710.47 32 M678.47 0 C698.93 -1.61, 712.36 9.99, 710.47 32 M710.47 32 C708.26 82.42, 710.1 129.31, 710.47 255 M710.47 32 C711.01 86.81, 709.58 140.79, 710.47 255 M710.47 255 C712.16 276.57, 699.49 288.57, 678.47 287 M710.47 255 C708.97 277.73, 699.6 286.57, 678.47 287 M678.47 287 C472.16 286.55, 266.13 286.39, 32 287 M678.47 287 C504.4 284.95, 329.76 284.67, 32 287 M32 287 C11.26 287.9, 1.73 277.26, 0 255 M32 287 C12.8 288.13, 1.34 276.97, 0 255 M0 255 C1.36 168.98, -1.18 82.04, 0 32 M0 255 C2.16 183.5, 0.69 112.34, 0 32 M0 32 C-0.82 10.06, 9.54 0.1, 32 0 M0 32 C1.81 10.53, 12.71 -2.25, 32 0" stroke="#1971c2" stroke-width="2" fill="none"></path></g><g stroke-linecap="round" transform="translate(69.72336612447646 172.72336612447646) rotate(0 131.5 83.5)"><path d="M32 0 C102.73 -0.1, 175.42 2.09, 231 0 M32 0 C76.01 2.3, 120.98 1.96, 231 0 M231 0 C253.67 -1.44, 262.88 12.5, 263 32 M231 0 C254.3 -1.62, 263.72 8.91, 263 32 M263 32 C263.01 65.33, 263.02 101.63, 263 135 M263 32 C263 66.96, 263.29 101.88, 263 135 M263 135 C261.11 157.76, 253.8 167.71, 231 167 M263 135 C264.51 157.01, 251.5 168.14, 231 167 M231 167 C160.66 165.68, 90.65 167.04, 32 167 M231 167 C168.07 165.07, 105.02 166.55, 32 167 M32 167 C8.77 168.75, -1.57 157.5, 0 135 M32 167 C9.21 168.58, -0.35 157.9, 0 135 M0 135 C1.24 102.54, 0.5 72.2, 0 32 M0 135 C0.16 106.61, -0.53 78.32, 0 32 M0 32 C0.4 11.73, 12.28 -1.92, 32 0 M0 32 C0.36 12.31, 10.09 2.22, 32 0" stroke="#2f9e44" stroke-width="2" fill="none"></path></g><g stroke-linecap="round" transform="translate(10 38.723366124476456) rotate(0 537.4664264147268 203)"><path d="M32 0 C242.72 -2.11, 453.69 -2.03, 1042.93 0 M32 0 C251.02 3.12, 469.96 3.17, 1042.93 0 M1042.93 0 C1064.15 0.5, 1076 11.23, 1074.93 32 M1042.93 0 C1065.09 -0.15, 1076.32 12.5, 1074.93 32 M1074.93 32 C1073.07 154.47, 1072.8 274.6, 1074.93 374 M1074.93 32 C1074.52 105.21, 1074.32 178.2, 1074.93 374 M1074.93 374 C1075.39 394.62, 1065.86 405.36, 1042.93 406 M1074.93 374 C1076.03 393.75, 1064.19 405.21, 1042.93 406 M1042.93 406 C641.2 409.87, 240.1 408.96, 32 406 M1042.93 406 C651.1 401.95, 260.07 402.57, 32 406 M32 406 C12.66 404.02, 1.77 396.16, 0 374 M32 406 C12.4 406.13, 1.11 397.58, 0 374 M0 374 C2.11 277.44, 0.91 182.55, 0 32 M0 374 C0.97 290.67, 2.11 207.26, 0 32 M0 32 C1.41 11.39, 10.17 1.1, 32 0 M0 32 C1.25 11.67, 10.07 -1.56, 32 0" stroke="#099268" stroke-width="2" fill="none"></path></g><g stroke-linecap="round" transform="translate(28 76.72336612447646) rotate(0 376.59534430700296 174)"><path d="M32 0 C297.23 -1.22, 562.47 -1.25, 721.19 0 M32 0 C299.72 -0.22, 566.97 -0.6, 721.19 0 M721.19 0 C742.73 0.58, 751.74 12.25, 753.19 32 M721.19 0 C740.72 -1.12, 754.4 11.28, 753.19 32 M753.19 32 C751.63 134.01, 751.46 239.11, 753.19 316 M753.19 32 C751.6 124.12, 751.59 216.97, 753.19 316 M753.19 316 C753.11 335.96, 741.54 348.6, 721.19 348 M753.19 316 C754.35 338.61, 740.95 346.07, 721.19 348 M721.19 348 C511.3 345.82, 300.76 345.69, 32 348 M721.19 348 C464.77 349.39, 208.33 349.05, 32 348 M32 348 C11.01 346.45, 0.08 337.5, 0 316 M32 348 C10.16 346.12, -1.89 335.62, 0 316 M0 316 C0.16 212.85, 0.36 108.71, 0 32 M0 316 C1.8 249.49, 2.29 182.64, 0 32 M0 32 C-1.87 8.78, 10.54 1.96, 32 0 M0 32 C1.73 11.05, 11.44 -1.43, 32 0" stroke="#e03131" stroke-width="2" fill="none"></path></g><g transform="translate(35 10) rotate(0 32.63333511352539 12.5)"><text x="0" y="0" font-family="Virgil, Segoe UI Emoji" font-size="20px" fill="#099268" text-anchor="start" style="white-space: pre;" direction="ltr" dominant-baseline="text-before-edge">Turnaj</text></g><g transform="translate(42 51.723366124476456) rotate(0 66.41666412353516 12.5)"><text x="0" y="0" font-family="Virgil, Segoe UI Emoji" font-size="20px" fill="#e03131" text-anchor="start" style="white-space: pre;" direction="ltr" dominant-baseline="text-before-edge">Stage / Fáze</text></g><g transform="translate(76 91.72336612447646) rotate(0 69.63333129882812 12.5)"><text x="0" y="0" font-family="Virgil, Segoe UI Emoji" font-size="20px" fill="#1971c2" text-anchor="start" style="white-space: pre;" direction="ltr" dominant-baseline="text-before-edge">Session / Kolo</text></g><g transform="translate(86.36666870117188 142.22336612447646) rotate(0 84.55000305175781 12.5)"><text x="0" y="0" font-family="Virgil, Segoe UI Emoji" font-size="20px" fill="#2f9e44" text-anchor="start" style="white-space: pre;" direction="ltr" dominant-baseline="text-before-edge">Round / Sestava</text></g><g stroke-linecap="round" transform="translate(370 175.22336612447646) rotate(0 90 81.5)"><path d="M32 0 C70.88 -0.76, 104.53 -1.62, 148 0 M32 0 C67.58 -1.09, 104.94 -0.26, 148 0 M148 0 C167.86 -0.77, 181.21 10.22, 180 32 M148 0 C168.19 -1.85, 177.8 11.92, 180 32 M180 32 C182.38 59.61, 180.48 86.46, 180 131 M180 32 C180.87 65.8, 180.61 100.54, 180 131 M180 131 C180.69 151.91, 169.99 162.85, 148 163 M180 131 C180 152.75, 171.03 165.04, 148 163 M148 163 C109.68 163.85, 68.03 164.72, 32 163 M148 163 C122.5 163.8, 94.2 163.36, 32 163 M32 163 C8.98 162.54, 0.39 150.43, 0 131 M32 163 C10.65 162.3, 1.31 150.78, 0 131 M0 131 C-0.27 104.29, -0.92 79.59, 0 32 M0 131 C0.53 110.11, 1.29 89.2, 0 32 M0 32 C-1.84 10.27, 11.46 -1.98, 32 0 M0 32 C1.36 8.62, 12.3 1.4, 32 0" stroke="#f08c00" stroke-width="2" fill="none"></path></g><g transform="translate(375.4499969482422 143.22336612447646) rotate(0 73.94999694824219 12.5)"><text x="0" y="0" font-family="Virgil, Segoe UI Emoji" font-size="20px" fill="#f08c00" text-anchor="start" style="white-space: pre;" direction="ltr" dominant-baseline="text-before-edge">Sector / Sekce</text></g><g stroke-linecap="round" transform="translate(385.5 219.22336612447646) rotate(0 74 53.5)"><path d="M26.75 0 C59.95 -0.46, 91.91 2.21, 121.25 0 M26.75 0 C57.69 0.01, 89.66 -1.03, 121.25 0 M121.25 0 C139.96 -1.47, 149.72 7.89, 148 26.75 M121.25 0 C140.08 -0.95, 147.09 8.52, 148 26.75 M148 26.75 C146.25 38.93, 148.07 50.18, 148 80.25 M148 26.75 C148.67 43.14, 146.69 58.28, 148 80.25 M148 80.25 C148.04 98.64, 139.22 105.96, 121.25 107 M148 80.25 C148.06 96.05, 141.34 108.69, 121.25 107 M121.25 107 C96.52 107.8, 72.57 107.88, 26.75 107 M121.25 107 C101.14 107.55, 78.54 106.51, 26.75 107 M26.75 107 C8.55 106.4, -1.44 96.3, 0 80.25 M26.75 107 C9.96 106.49, -1.24 98.46, 0 80.25 M0 80.25 C0.25 67.77, 1.19 56.85, 0 26.75 M0 80.25 C0.27 65.12, -0.19 48.58, 0 26.75 M0 26.75 C-1.69 8.16, 8.92 1.46, 26.75 0 M0 26.75 C-1.04 9.04, 7.31 1.37, 26.75 0" stroke="#6741d9" stroke-width="2" fill="none"></path></g><g transform="translate(393 188.72336612447646) rotate(0 19.5 12.5)"><text x="0" y="0" font-family="Virgil, Segoe UI Emoji" font-size="20px" fill="#6741d9" text-anchor="start" style="white-space: pre;" direction="ltr" dominant-baseline="text-before-edge">Stůl</text></g><g stroke-linecap="round" transform="translate(569 182.9467322489529) rotate(0 87.44673224895291 51.105639427291294)"><path d="M25.55 0 C55.68 1.82, 80.93 -1.64, 149.34 0 M25.55 0 C55.48 0.73, 86.07 0.22, 149.34 0 M149.34 0 C167.34 0.08, 175.96 9.84, 174.89 25.55 M149.34 0 C166.35 -1.58, 176.48 8.34, 174.89 25.55 M174.89 25.55 C174.68 41.76, 174.44 54.86, 174.89 76.66 M174.89 25.55 C173.94 40.38, 174.06 57.15, 174.89 76.66 M174.89 76.66 C176.76 93.82, 164.86 102.04, 149.34 102.21 M174.89 76.66 C173.39 94.65, 164.9 100.23, 149.34 102.21 M149.34 102.21 C115.79 99.66, 79.38 100.9, 25.55 102.21 M149.34 102.21 C107.33 100.98, 66.57 101.97, 25.55 102.21 M25.55 102.21 C9.84 102.18, 0.78 92.66, 0 76.66 M25.55 102.21 C6.75 103.66, -0.11 94.35, 0 76.66 M0 76.66 C0.9 54.87, 0.44 35.34, 0 25.55 M0 76.66 C-0.71 60.26, -1.1 42.44, 0 25.55 M0 25.55 C-1.44 8.09, 9.33 1.96, 25.55 0 M0 25.55 C-2.27 6.41, 10.57 -0.31, 25.55 0" stroke="#9c36b5" stroke-width="2" fill="none"></path></g><g transform="translate(579.3266369272812 200.9914970293171) rotate(0 75.73332977294922 25)"><text x="0" y="0" font-family="Virgil, Segoe UI Emoji" font-size="20px" fill="#9c36b5" text-anchor="start" style="white-space: pre;" direction="ltr" dominant-baseline="text-before-edge">Sets of boards</text><text x="0" y="25" font-family="Virgil, Segoe UI Emoji" font-size="20px" fill="#9c36b5" text-anchor="start" style="white-space: pre;" direction="ltr" dominant-baseline="text-before-edge">sety krabic</text></g><g transform="translate(74.05000305175781 354.22336612447646) rotate(0 185.53334045410156 12.5)"><text x="0" y="0" font-family="Virgil, Segoe UI Emoji" font-size="20px" fill="#1971c2" text-anchor="start" style="white-space: pre;" direction="ltr" dominant-baseline="text-before-edge">- počet segmentů, pro týmové turnaje</text></g><g transform="translate(400.46665954589844 236.22336612447646) rotate(0 58.516666412353516 37.5)"><text x="0" y="0" font-family="Virgil, Segoe UI Emoji" font-size="20px" fill="#6741d9" text-anchor="start" style="white-space: pre;" direction="ltr" dominant-baseline="text-before-edge">- místnost</text><text x="0" y="25" font-family="Virgil, Segoe UI Emoji" font-size="20px" fill="#6741d9" text-anchor="start" style="white-space: pre;" direction="ltr" dominant-baseline="text-before-edge">Open/Closed</text><text x="0" y="50" font-family="Virgil, Segoe UI Emoji" font-size="20px" fill="#6741d9" text-anchor="start" style="white-space: pre;" direction="ltr" dominant-baseline="text-before-edge">(týmáky)</text></g><g transform="translate(89 195.03757519920697) rotate(0 110.69999694824219 10)"><text x="0" y="0" font-family="Virgil, Segoe UI Emoji" font-size="16px" fill="#2f9e44" text-anchor="start" style="white-space: pre;" direction="ltr" dominant-baseline="text-before-edge">jednotlivé posazení na stoly</text></g><g transform="translate(89 242.22336612447646) rotate(0 38.33333206176758 12.5)"><text x="0" y="0" font-family="Virgil, Segoe UI Emoji" font-size="20px" fill="#2f9e44" text-anchor="start" style="white-space: pre;" direction="ltr" dominant-baseline="text-before-edge">čtveřice</text></g><g transform="translate(89 272.22336612447646) rotate(0 112.86666870117188 12.5)"><text x="0" y="0" font-family="Virgil, Segoe UI Emoji" font-size="20px" fill="#2f9e44" text-anchor="start" style="white-space: pre;" direction="ltr" dominant-baseline="text-before-edge">stůl, ew, ns, set krabic</text></g><g stroke-linecap="round" transform="translate(817.7439563650532 89.72336612447646) rotate(0 111.62622966786785 67.71127885458264)"><path d="M32 0 C81.91 -0.05, 135.77 0.53, 191.25 0 M32 0 C88.59 0.87, 146.64 0.82, 191.25 0 M191.25 0 C211.18 -1.14, 221.26 9.02, 223.25 32 M191.25 0 C212.23 -0.02, 224.72 12.15, 223.25 32 M223.25 32 C223.87 53.03, 221.3 71.84, 223.25 103.42 M223.25 32 C222.44 51.09, 223 69.35, 223.25 103.42 M223.25 103.42 C221.54 126.1, 214.57 135.01, 191.25 135.42 M223.25 103.42 C222.23 122.89, 213.3 135.47, 191.25 135.42 M191.25 135.42 C158.31 135.86, 123.66 137.52, 32 135.42 M191.25 135.42 C156.78 136.14, 123.09 134.93, 32 135.42 M32 135.42 C8.97 136.69, -1.58 124.9, 0 103.42 M32 135.42 C12.85 133.77, 0.32 125.23, 0 103.42 M0 103.42 C-0.24 84.14, 0.16 65.59, 0 32 M0 103.42 C-0.16 87.16, -1.28 69.34, 0 32 M0 32 C1.03 10.74, 9.65 1.32, 32 0 M0 32 C0.87 12.92, 12.62 0.21, 32 0" stroke="#ffd43b" stroke-width="2" fill="none"></path></g><g transform="translate(829.7439563650532 64.72336612447646) rotate(0 41.46666717529297 12.5)"><text x="0" y="0" font-family="Virgil, Segoe UI Emoji" font-size="20px" fill="#ffd43b" text-anchor="start" style="white-space: pre;" direction="ltr" dominant-baseline="text-before-edge">Účastník</text></g><g transform="translate(836.7439563650532 112.72336612447646) rotate(0 92.93333435058594 12.5)"><text x="0" y="0" font-family="Virgil, Segoe UI Emoji" font-size="20px" fill="#ffd43b" text-anchor="start" style="white-space: pre;" direction="ltr" dominant-baseline="text-before-edge">týmy / páry / hráči</text></g><g stroke-linecap="round" transform="translate(824.8710821077239 153.48791273010613) rotate(0 42.15711502873296 27.073857991623697)"><path d="M13.54 0 C33.79 -2.42, 50.82 -2.3, 70.78 0 M13.54 0 C27.52 -0.32, 39.79 0.89, 70.78 0 M70.78 0 C79.23 1.73, 83.07 2.64, 84.31 13.54 M70.78 0 C79.03 2.17, 82.61 5.15, 84.31 13.54 M84.31 13.54 C82.55 24.2, 86.14 33.29, 84.31 40.61 M84.31 13.54 C83.72 19.5, 83.85 27.23, 84.31 40.61 M84.31 40.61 C83.38 50.44, 79.11 55.87, 70.78 54.15 M84.31 40.61 C84.93 48.56, 78.59 53.8, 70.78 54.15 M70.78 54.15 C52.59 54.84, 36.6 54.89, 13.54 54.15 M70.78 54.15 C57.09 54.74, 43.47 54.65, 13.54 54.15 M13.54 54.15 C5.85 54.29, -0.5 47.97, 0 40.61 M13.54 54.15 C6.43 52.01, -2.2 47.85, 0 40.61 M0 40.61 C-0.16 34.71, -0.98 31.41, 0 13.54 M0 40.61 C1.01 31.5, -0.01 24.41, 0 13.54 M0 13.54 C1.59 5.98, 5.96 0.08, 13.54 0 M0 13.54 C-0.76 6.6, 3.18 -1.86, 13.54 0" stroke="#c2255c" stroke-width="2" fill="none"></path></g><g transform="translate(842.2336612447648 167.34019674685885) rotate(0 20.450000762939453 12.5)"><text x="0" y="0" font-family="Virgil, Segoe UI Emoji" font-size="20px" fill="#c2255c" text-anchor="start" style="white-space: pre;" direction="ltr" dominant-baseline="text-before-edge">Hráč</text></g><g transform="translate(322.7815525469955 84.32139865588775) rotate(0 191.6666717529297 12.5)"><text x="0" y="0" font-family="Virgil, Segoe UI Emoji" font-size="20px" fill="#e03131" text-anchor="start" style="white-space: pre;" direction="ltr" dominant-baseline="text-before-edge">- strategie výpočtu, Carry-over, butler</text></g><g stroke-linecap="round" transform="translate(820.1096815038472 287.25650141229164) rotate(0 111.62622966786785 58.77484172591801)"><path d="M29.39 0 C80.27 -0.96, 130.94 0.73, 193.87 0 M29.39 0 C90.3 0.95, 151.25 0.55, 193.87 0 M193.87 0 C215.25 0.13, 222.63 9.16, 223.25 29.39 M193.87 0 C214.72 -1.08, 221.05 11.51, 223.25 29.39 M223.25 29.39 C225.43 47.72, 222.56 62.97, 223.25 88.16 M223.25 29.39 C224.25 43.07, 224.55 56.87, 223.25 88.16 M223.25 88.16 C223.95 109.37, 213.33 117.58, 193.87 117.55 M223.25 88.16 C222.68 108.77, 211.81 118.4, 193.87 117.55 M193.87 117.55 C143.75 119.38, 92 116.94, 29.39 117.55 M193.87 117.55 C150.57 115.75, 108.16 116.38, 29.39 117.55 M29.39 117.55 C9.04 119.01, -1.46 106.54, 0 88.16 M29.39 117.55 C10.83 119.42, 0.43 109.6, 0 88.16 M0 88.16 C0.69 66.55, -0.25 48.45, 0 29.39 M0 88.16 C-0.47 65.04, -1.06 41.69, 0 29.39 M0 29.39 C-1.36 10.84, 10.15 -1.62, 29.39 0 M0 29.39 C2.03 11.7, 8.92 -1.95, 29.39 0" stroke="#3bc9db" stroke-width="2" fill="none"></path></g><g transform="translate(820.6687640011689 256.6669718515632) rotate(0 125.3499984741211 12.5)"><text x="0" y="0" font-family="Virgil, Segoe UI Emoji" font-size="20px" fill="#3bc9db" text-anchor="start" style="white-space: pre;" direction="ltr" dominant-baseline="text-before-edge">Prezentace (lze mít více)</text></g><g transform="translate(834.7117366319276 303.9024252459335) rotate(0 80.76667022705078 37.5)"><text x="0" y="0" font-family="Virgil, Segoe UI Emoji" font-size="20px" fill="#3bc9db" text-anchor="start" style="white-space: pre;" direction="ltr" dominant-baseline="text-before-edge">- název turnaje</text><text x="0" y="25" font-family="Virgil, Segoe UI Emoji" font-size="20px" fill="#3bc9db" text-anchor="start" style="white-space: pre;" direction="ltr" dominant-baseline="text-before-edge">- ftp údaje</text><text x="0" y="50" font-family="Virgil, Segoe UI Emoji" font-size="20px" fill="#3bc9db" text-anchor="start" style="white-space: pre;" direction="ltr" dominant-baseline="text-before-edge">- co zobrazovat</text></g></svg>